<svg width="64" height="64" viewBox="0 0 64 64" fill="none" xmlns="http://www.w3.org/2000/svg">
<rect width="64" height="64" rx="32" fill="#3B71FE"/>
<path fill-rule="evenodd" clip-rule="evenodd" d="M34.9056 36.3199C33.551 37.3729 31.8487 38 30 38C25.5817 38 22 34.4183 22 30C22 25.5817 25.5817 22 30 22C34.4183 22 38 25.5817 38 30C38 31.8487 37.3729 33.551 36.3199 34.9056L41.7071 40.2929C42.0976 40.6834 42.0976 41.3166 41.7071 41.7071C41.3166 42.0976 40.6834 42.0976 40.2929 41.7071L34.9056 36.3199ZM36 30C36 33.3137 33.3137 36 30 36C26.6863 36 24 33.3137 24 30C24 26.6863 26.6863 24 30 24C33.3137 24 36 26.6863 36 30Z" fill="#FCFCFD"/>
</svg>
