<svg width="40" height="40" viewBox="0 0 40 40" fill="none" xmlns="http://www.w3.org/2000/svg">
<path fill-rule="evenodd" clip-rule="evenodd" d="M40 20C40 31.0457 31.0457 40 20 40C8.95431 40 0 31.0457 0 20C0 8.95431 8.95431 0 20 0C31.0457 0 40 8.95431 40 20ZM13.9444 23.5299C13.6846 22.4563 12.6037 21.7966 11.5301 22.0563C10.4565 22.3161 9.79678 23.397 10.0566 24.4706C10.5824 26.6437 11.8721 28.5584 13.6826 29.9163C15.491 31.2726 17.7189 32.0002 20.0005 32.0002C22.282 32.0002 24.5099 31.2726 26.3183 29.9163C28.1289 28.5584 29.4185 26.6437 29.9444 24.4706C30.2041 23.397 29.5444 22.3161 28.4708 22.0563C27.3972 21.7966 26.3163 22.4563 26.0566 23.5299C25.7577 24.7649 25.0149 25.8939 23.9183 26.7163C22.8197 27.5403 21.4385 28.0002 20.0005 28.0002C18.5625 28.0002 17.1813 27.5403 16.0826 26.7163C14.986 25.8939 14.2432 24.7649 13.9444 23.5299ZM16.3568 17.9677C15.27 18.1649 14.229 17.4438 14.0318 16.357C14.023 16.3086 14.012 16.265 13.9997 16.226C13.9873 16.265 13.9763 16.3086 13.9675 16.357C13.7703 17.4438 12.7293 18.1649 11.6425 17.9677C10.5557 17.7705 9.83456 16.7295 10.0318 15.6427C10.1982 14.7256 10.6199 13.8329 11.306 13.1469C12.0011 12.4518 12.946 11.9998 13.9997 11.9998C15.0533 11.9998 15.9982 12.4518 16.6933 13.1469C17.3794 13.8329 17.8011 14.7255 17.9675 15.6427C18.1647 16.7295 17.4436 17.7705 16.3568 17.9677ZM26.0318 16.357C26.229 17.4438 27.27 18.1649 28.3568 17.9677C29.4436 17.7705 30.1647 16.7295 29.9675 15.6427C29.8011 14.7255 29.3794 13.8329 28.6933 13.1469C27.9982 12.4518 27.0533 11.9998 25.9997 11.9998C24.946 11.9998 24.0011 12.4518 23.306 13.1469C22.6199 13.8329 22.1982 14.7256 22.0318 15.6427C21.8346 16.7295 22.5557 17.7705 23.6425 17.9677C24.7293 18.1649 25.7703 17.4438 25.9675 16.357C25.9763 16.3086 25.9873 16.265 25.9997 16.226C26.012 16.265 26.023 16.3086 26.0318 16.357Z" fill="#FA8F54"/>
</svg>
